# xmcd
#
# Track frame offsets:
#	150
#	23849
#	38497
#	56171
#	69506
#	80379
#	94986
#	124041
#	137190
#	153329
#	166631
#	182856
#	192862
#	203054
#	220627
#	233628
#
# Disc length: 3279 seconds
#
# Revision: 0
# Processed by: cddbd v1.5.2PL0 Copyright (c) Steve Scherf et al.
# Submitted via: EasyCDDAExtractor 15.2.5.1
#
DISCID=d00ccd10
DTITLE=dave hamilton - detroit city grooves
DYEAR=1900
DGENRE=Funk
TTITLE0=soul suite
TTITLE1=the sweeter the juice
TTITLE2=brother ratt
TTITLE3=tell your mama
TTITLE4=pisces pace (part 1)
TTITLE5=pisces pace (part 2)
TTITLE6=yesterdays
TTITLE7=take it in stride
TTITLE8=marriage is a state of vibes
TTITLE9=cracklin' bread
TTITLE10=can you dig it?
TTITLE11=who are you trying to fool
TTITLE12=blue vibes
TTITLE13=the deacons
TTITLE14=ain't it a groove
TTITLE15=blue funk
EXTD=
EXTT0=
EXTT1=
EXTT2=
EXTT3=
EXTT4=
EXTT5=
EXTT6=
EXTT7=
EXTT8=
EXTT9=
EXTT10=
EXTT11=
EXTT12=
EXTT13=
EXTT14=
EXTT15=
PLAYORDER=
